<?xml version="1.0" standalone="no"?>
<!DOCTYPE svg PUBLIC "-//W3C//DTD SVG 20010904//EN"
 "http://www.w3.org/TR/2001/REC-SVG-20010904/DTD/svg10.dtd">
<svg version="1.0" xmlns="http://www.w3.org/2000/svg"
 width="260.000000pt" height="260.000000pt" viewBox="0 0 260.000000 260.000000"
 preserveAspectRatio="xMidYMid meet">
<metadata>
Created by potrace 1.11, written by Peter Selinger 2001-2013
</metadata>
<g transform="translate(0.000000,260.000000) scale(0.100000,-0.100000)"
fill="#000000" stroke="none">
<path d="M1295 2402 c-11 -2 -24 -9 -30 -16 -6 -8 -10 -81 -9 -177 l1 -165
-26 -2 c-14 -1 -51 -9 -81 -18 -226 -65 -338 -239 -300 -464 25 -148 117 -248
336 -364 l71 -38 0 -249 c-1 -285 8 -267 -95 -206 -105 63 -214 195 -267 325
-18 45 -28 57 -45 57 -22 0 -22 -2 -20 -145 2 -230 5 -251 30 -270 27 -21 144
-66 207 -81 41 -9 92 -15 174 -18 14 -1 16 -23 16 -176 0 -117 4 -179 12 -188
12 -15 68 -14 83 1 4 4 9 90 10 192 l3 184 49 12 c224 57 372 255 361 483 -7
166 -99 282 -323 410 l-92 53 0 209 0 210 23 -7 c38 -12 120 -69 165 -115 46
-47 102 -148 102 -185 0 -26 12 -37 33 -28 11 4 15 29 17 112 2 59 3 132 4
162 1 30 0 63 -2 72 -6 23 -67 47 -197 74 -11 2 -48 5 -82 5 l-63 1 -2 170
c-3 161 -4 171 -23 178 -11 3 -29 5 -40 2z m-38 -607 c-1 -102 -3 -185 -7
-185 -15 0 -105 100 -121 135 -23 49 -24 136 -3 176 16 33 62 58 105 59 l26 0
0 -185z m218 -840 c61 -124 17 -274 -88 -300 l-27 -7 0 223 0 223 45 -44 c25
-25 57 -67 70 -95z"/>
</g>
</svg>
